<?xml version="1.0" encoding="UTF-8"?>
<svg xmlns="http://www.w3.org/2000/svg" xmlns:xlink="http://www.w3.org/1999/xlink" viewBox="0 0 480 480" width="480px" height="480px">
<g id="surface49155785">
<path style=" stroke:none;fill-rule:nonzero;fill:rgb(0%,0%,0%);fill-opacity:1;" d="M 432.230469 208 C 432.230469 119.824219 360.410156 48 272.230469 48 C 184.054688 48 112.234375 119.824219 112.234375 208 C 112.234375 246.34375 125.847656 281.558594 148.449219 309.15625 L 52.921875 404.6875 C 48.738281 408.699219 47.054688 414.660156 48.519531 420.265625 C 49.980469 425.875 54.359375 430.253906 59.964844 431.714844 C 65.574219 433.175781 71.53125 431.492188 75.546875 427.3125 L 171.074219 331.78125 C 198.675781 354.382812 233.886719 368 272.230469 368 C 360.410156 368 432.230469 296.175781 432.230469 208 Z M 400.230469 208 C 400.230469 278.882812 343.113281 336 272.230469 336 C 201.351562 336 144.234375 278.882812 144.234375 208 C 144.234375 137.117188 201.351562 80 272.230469 80 C 343.113281 80 400.230469 137.117188 400.230469 208 Z M 400.230469 208 "/>
</g>
</svg>
